<?xml version="1.0" encoding="UTF-8"?>
<svg id="Warstwa_2" xmlns="http://www.w3.org/2000/svg" viewBox="0 0 211.93 492.5">
  <defs>
    <style>
      .cls-1 {
        fill: #fff;
      }
    </style>
  </defs>
  <g id="Warstwa_1-2" data-name="Warstwa_1">
    <path class="cls-1" d="M157.63,445.77l-2.02-212.74,1.01-81.84,2.69-37.9s-28.9,182.24-1.68,332.49h0Z"/>
    <path class="cls-1" d="M156.48,492.5s-64.75-206.56-55.79-275.37c0,0-32.91,64.41,55.79,275.37Z"/>
    <path class="cls-1" d="M92.76,228.72s14.12-108.59,88.73-139.23c-85.18,2.69-85.31,2.15-85.13,2.15,0,0-3.6,137.08-3.6,137.08Z"/>
    <path class="cls-1" d="M93.69,304.79s-17.81-152.37-9.3-212.84c-73.19-3.19-73.61-5.54-73.61-5.54l74.67-4.57,8.23-69.14,2.46,68.74h115.79s-24.54-27.21-86.88-25.4c-.34-52.61,0-53.62,0-53.62L61.02,0s-6.39,29.03-5.38,57.25l-50.41,1.21S-1.49,99.72.3,116.92l55.34,7.26s16.64,127.67,38.04,180.62h.01Z"/>
  </g>
</svg>