<?xml version="1.0" encoding="UTF-8"?>
<svg id="Warstwa_1" xmlns="http://www.w3.org/2000/svg" viewBox="0 0 843.46 492.5">
  <defs>
    <style>
      .cls-1 {
        isolation: isolate;
      }

      .cls-2 {
        fill: #1d1d1b;
      }
    </style>
  </defs>
  <path class="cls-2" d="M157.63,445.77l-2.02-212.74,1.01-81.84,2.69-37.9s-28.9,182.24-1.68,332.49h0Z"/>
  <path class="cls-2" d="M156.48,492.5s-64.75-206.56-55.79-275.37c0,0-32.91,64.41,55.79,275.37Z"/>
  <path class="cls-2" d="M92.76,228.72s14.12-108.59,88.73-139.23c-85.18,2.69-85.31,2.15-85.13,2.15l-3.6,137.08Z"/>
  <path class="cls-2" d="M93.69,304.79s-17.81-152.37-9.3-212.84c-73.19-3.19-73.61-5.54-73.61-5.54l74.67-4.57,8.23-69.14,2.46,68.74h115.79s-24.54-27.21-86.88-25.4c-.34-52.61,0-53.62,0-53.62L61.02,0s-6.39,29.03-5.38,57.25l-50.41,1.21S-1.49,99.72.3,116.92l55.34,7.26s16.64,127.67,38.04,180.62h.01Z"/>
  <g class="cls-1">
    <g class="cls-1">
      <path class="cls-2" d="M354.95,286.98l-5.71-25.93h2.92l3.27,17c.35,1.78.66,3.55.91,5.31.55-2.77.87-4.37.97-4.79l4.1-17.51h3.43l3.08,13.12c.77,3.25,1.33,6.31,1.67,9.18.27-1.64.63-3.52,1.07-5.64l3.38-16.66h2.86l-5.9,25.93h-2.75l-4.54-19.76c-.38-1.65-.61-2.66-.68-3.04-.22,1.19-.44,2.21-.63,3.04l-4.57,19.76h-2.91Z"/>
      <path class="cls-2" d="M387.84,286.98v-25.93h4.29l5.09,18.36c.47,1.71.81,2.99,1.03,3.84.24-.94.63-2.33,1.14-4.16l5.15-18.04h3.83v25.93h-2.75v-21.7l-6.25,21.7h-2.57l-6.22-22.07v22.07h-2.75Z"/>
      <path class="cls-2" d="M410.6,286.98l8.26-25.93h3.07l8.81,25.93h-3.24l-2.51-7.85h-9l-2.36,7.85h-3.02ZM416.81,276.33h7.3l-2.25-7.18c-.69-2.18-1.19-3.97-1.53-5.38-.27,1.66-.66,3.31-1.16,4.95l-2.36,7.61Z"/>
      <path class="cls-2" d="M448.37,277.89l2.85.87c-.6,2.82-1.67,4.97-3.22,6.45-1.55,1.48-3.45,2.22-5.69,2.22s-4.21-.57-5.66-1.71c-1.45-1.14-2.56-2.79-3.32-4.94s-1.14-4.47-1.14-6.95c0-2.7.43-5.05,1.28-7.07.86-2.01,2.08-3.54,3.66-4.58s3.32-1.56,5.22-1.56c2.15,0,3.96.66,5.43,1.98,1.47,1.32,2.49,3.18,3.07,5.57l-2.8.8c-.5-1.89-1.22-3.26-2.17-4.12-.95-.86-2.14-1.29-3.58-1.29-1.65,0-3.04.48-4.15,1.43-1.11.96-1.89,2.24-2.34,3.85s-.68,3.27-.68,4.98c0,2.21.27,4.13.8,5.77.53,1.64,1.36,2.88,2.49,3.69,1.13.81,2.34,1.22,3.66,1.22,1.6,0,2.95-.55,4.05-1.66,1.11-1.11,1.85-2.75,2.25-4.93Z"/>
      <path class="cls-2" d="M455.21,286.98v-25.93h2.85v25.93h-2.85Z"/>
      <path class="cls-2" d="M463.14,286.98v-25.93h15.56v3.06h-12.71v7.94h11.91v3.04h-11.91v8.82h13.21v3.06h-16.06Z"/>
      <path class="cls-2" d="M481.68,279.62l2.57-.42c.07,1.98.38,3.34.92,4.07.55.73,1.31,1.1,2.28,1.1.71,0,1.33-.2,1.85-.59.52-.39.88-.93,1.07-1.61.2-.68.29-1.76.29-3.24v-17.86h2.85v17.67c0,2.17-.22,3.85-.65,5.04-.44,1.19-1.12,2.1-2.07,2.72s-2.05.94-3.33.94c-1.89,0-3.33-.65-4.34-1.96s-1.48-3.25-1.45-5.84Z"/>
      <path class="cls-2" d="M497.3,274.35c0-4.3.96-7.67,2.88-10.11s4.39-3.65,7.43-3.65c1.99,0,3.78.57,5.37,1.71,1.59,1.14,2.81,2.74,3.65,4.78s1.25,4.37,1.25,6.96-.44,4.98-1.32,7.06-2.13,3.65-3.74,4.71c-1.61,1.07-3.36,1.6-5.23,1.6-2.03,0-3.84-.59-5.43-1.77-1.59-1.18-2.8-2.79-3.62-4.83-.82-2.04-1.23-4.2-1.23-6.47ZM500.23,274.41c0,3.12.7,5.58,2.09,7.38,1.39,1.8,3.14,2.7,5.25,2.7s3.91-.91,5.29-2.72,2.08-4.39,2.08-7.73c0-2.11-.3-3.95-.89-5.53-.59-1.57-1.46-2.79-2.6-3.66-1.14-.87-2.42-1.3-3.84-1.3-2.02,0-3.75.83-5.2,2.5-1.45,1.67-2.18,4.45-2.18,8.36Z"/>
      <path class="cls-2" d="M525.3,286.98l-5.71-25.93h2.92l3.27,17c.35,1.78.66,3.55.91,5.31.55-2.77.87-4.37.97-4.79l4.1-17.51h3.43l3.08,13.12c.77,3.25,1.33,6.31,1.67,9.18.27-1.64.63-3.52,1.07-5.64l3.38-16.66h2.86l-5.9,25.93h-2.75l-4.54-19.76c-.38-1.65-.61-2.66-.68-3.04-.22,1.19-.44,2.21-.63,3.04l-4.57,19.76h-2.91Z"/>
      <path class="cls-2" d="M550.41,286.98v-25.93h2.85v25.93h-2.85Z"/>
      <path class="cls-2" d="M573.63,277.89l2.85.87c-.6,2.82-1.67,4.97-3.22,6.45-1.55,1.48-3.45,2.22-5.69,2.22s-4.21-.57-5.66-1.71c-1.45-1.14-2.56-2.79-3.32-4.94s-1.14-4.47-1.14-6.95c0-2.7.43-5.05,1.28-7.07.86-2.01,2.08-3.54,3.66-4.58s3.32-1.56,5.22-1.56c2.15,0,3.96.66,5.43,1.98,1.47,1.32,2.49,3.18,3.07,5.57l-2.8.8c-.5-1.89-1.22-3.26-2.17-4.12-.95-.86-2.14-1.29-3.58-1.29-1.65,0-3.04.48-4.15,1.43-1.11.96-1.89,2.24-2.34,3.85s-.68,3.27-.68,4.98c0,2.21.27,4.13.8,5.77.53,1.64,1.36,2.88,2.49,3.69,1.13.81,2.34,1.22,3.66,1.22,1.6,0,2.95-.55,4.05-1.66,1.11-1.11,1.85-2.75,2.25-4.93Z"/>
      <path class="cls-2" d="M577.62,286.98l8.26-25.93h3.07l8.81,25.93h-3.24l-2.51-7.85h-9l-2.36,7.85h-3.02ZM583.83,276.33h7.3l-2.25-7.18c-.69-2.18-1.19-3.97-1.53-5.38-.27,1.66-.66,3.31-1.16,4.95l-2.36,7.61Z"/>
      <path class="cls-2" d="M615.39,277.89l2.85.87c-.6,2.82-1.67,4.97-3.22,6.45-1.55,1.48-3.45,2.22-5.69,2.22s-4.21-.57-5.66-1.71c-1.45-1.14-2.56-2.79-3.32-4.94s-1.14-4.47-1.14-6.95c0-2.7.43-5.05,1.28-7.07.86-2.01,2.08-3.54,3.66-4.58s3.32-1.56,5.22-1.56c2.15,0,3.96.66,5.43,1.98,1.47,1.32,2.49,3.18,3.07,5.57l-2.8.8c-.5-1.89-1.22-3.26-2.17-4.12-.95-.86-2.14-1.29-3.58-1.29-1.65,0-3.04.48-4.15,1.43-1.11.96-1.89,2.24-2.34,3.85s-.68,3.27-.68,4.98c0,2.21.27,4.13.8,5.77.53,1.64,1.36,2.88,2.49,3.69,1.13.81,2.34,1.22,3.66,1.22,1.6,0,2.95-.55,4.05-1.66,1.11-1.11,1.85-2.75,2.25-4.93Z"/>
      <path class="cls-2" d="M621.83,286.98v-25.93h2.85v10.65h11.19v-10.65h2.85v25.93h-2.85v-12.22h-11.19v12.22h-2.85Z"/>
    </g>
  </g>
  <g class="cls-1">
    <g class="cls-1">
      <path class="cls-2" d="M192.56,167.9v-51.86h16.24c2.86,0,5.04.17,6.55.5,2.11.42,3.89,1.23,5.31,2.42,1.43,1.19,2.58,2.86,3.45,5.01.87,2.15,1.31,4.5,1.31,7.08,0,4.41-1.16,8.14-3.49,11.2-2.33,3.05-6.54,4.58-12.63,4.58h-11.04v21.08h-5.7ZM198.26,140.7h11.13c3.68,0,6.29-.83,7.84-2.48,1.55-1.65,2.32-3.97,2.32-6.97,0-2.17-.46-4.03-1.37-5.57-.91-1.54-2.11-2.56-3.6-3.06-.96-.31-2.73-.46-5.31-.46h-11.01v18.54Z"/>
      <path class="cls-2" d="M223.48,167.9l16.53-51.86h6.14l17.62,51.86h-6.49l-5.02-15.71h-18l-4.73,15.71h-6.05ZM235.9,146.6h14.59l-4.49-14.36c-1.37-4.36-2.39-7.95-3.05-10.75-.55,3.33-1.32,6.63-2.32,9.91l-4.73,15.21Z"/>
      <path class="cls-2" d="M268.4,167.9v-51.86h19.09c3.84,0,6.75.47,8.75,1.4,2,.93,3.59,2.58,4.79,4.94,1.19,2.36,1.79,4.96,1.79,7.82,0,3.68-.99,6.78-2.97,9.3-1.98,2.52-5.03,4.13-9.16,4.81,1.51.87,2.65,1.73,3.44,2.58,1.66,1.84,3.24,4.14,4.73,6.9l7.49,14.12h-7.16l-5.7-10.79c-1.66-3.11-3.03-5.5-4.11-7.15-1.08-1.65-2.04-2.81-2.89-3.47-.85-.66-1.72-1.12-2.6-1.38-.65-.16-1.7-.25-3.17-.25h-6.61v23.03h-5.7ZM274.1,138.93h12.24c2.6,0,4.64-.32,6.11-.97,1.47-.65,2.58-1.69,3.35-3.11.76-1.43,1.15-2.98,1.15-4.65,0-2.45-.74-4.47-2.22-6.05-1.48-1.58-3.81-2.37-7-2.37h-13.62v17.16Z"/>
      <path class="cls-2" d="M307.02,167.9l16.53-51.86h6.14l17.62,51.86h-6.49l-5.02-15.71h-18l-4.73,15.71h-6.05ZM319.44,146.6h14.59l-4.49-14.36c-1.37-4.36-2.39-7.95-3.05-10.75-.55,3.33-1.32,6.63-2.32,9.91l-4.73,15.21Z"/>
      <path class="cls-2" d="M352.14,167.9v-51.86h29.04v6.12h-23.34v16.06h20.2v6.12h-20.2v23.56h-5.7Z"/>
      <path class="cls-2" d="M389.55,167.9v-51.86h5.7v51.86h-5.7Z"/>
      <path class="cls-2" d="M400.56,167.9l16.53-51.86h6.14l17.62,51.86h-6.49l-5.02-15.71h-18l-4.73,15.71h-6.05ZM412.98,146.6h14.59l-4.49-14.36c-1.37-4.36-2.39-7.95-3.05-10.75-.55,3.33-1.32,6.63-2.32,9.91l-4.73,15.21Z"/>
      <path class="cls-2" d="M458.79,167.9v-51.86h16.24c2.86,0,5.04.17,6.55.5,2.11.42,3.89,1.23,5.31,2.42,1.43,1.19,2.58,2.86,3.45,5.01.87,2.15,1.31,4.5,1.31,7.08,0,4.41-1.17,8.14-3.49,11.2s-6.54,4.58-12.62,4.58h-11.04v21.08h-5.7ZM464.48,140.7h11.13c3.68,0,6.29-.83,7.84-2.48,1.55-1.65,2.32-3.97,2.32-6.97,0-2.17-.46-4.03-1.37-5.57-.91-1.54-2.11-2.56-3.6-3.06-.96-.31-2.73-.46-5.31-.46h-11.01v18.54Z"/>
      <path class="cls-2" d="M506.41,167.9l-11.42-51.86h5.84l6.55,34c.7,3.56,1.31,7.1,1.82,10.61,1.1-5.54,1.74-8.74,1.94-9.59l8.19-35.02h6.87l6.17,26.25c1.55,6.51,2.66,12.63,3.35,18.36.55-3.28,1.26-7.04,2.14-11.29l6.75-33.32h5.73l-11.8,51.86h-5.49l-9.07-39.52c-.76-3.3-1.21-5.33-1.35-6.08-.45,2.38-.87,4.41-1.26,6.08l-9.13,39.52h-5.81Z"/>
    </g>
  </g>
  <g class="cls-1">
    <g class="cls-1">
      <path class="cls-2" d="M216.79,232.58l-11.42-51.86h5.84l6.55,34c.7,3.56,1.31,7.1,1.82,10.61,1.1-5.54,1.74-8.74,1.94-9.59l8.19-35.02h6.87l6.17,26.25c1.55,6.51,2.66,12.63,3.35,18.36.55-3.28,1.26-7.04,2.14-11.29l6.75-33.32h5.73l-11.8,51.86h-5.49l-9.07-39.52c-.76-3.3-1.21-5.33-1.35-6.08-.45,2.38-.87,4.41-1.26,6.08l-9.13,39.52h-5.81Z"/>
      <path class="cls-2" d="M265.97,232.58v-51.86h5.84l22.61,40.72v-40.72h5.46v51.86h-5.84l-22.61-40.75v40.75h-5.46Z"/>
      <path class="cls-2" d="M310.42,232.58v-51.86h5.7v51.86h-5.7Z"/>
      <path class="cls-2" d="M326.28,232.58v-51.86h31.12v6.12h-25.43v15.88h23.81v6.08h-23.81v17.65h26.43v6.12h-32.12Z"/>
      <path class="cls-2" d="M366.03,232.58v-51.86h16.15c3.29,0,5.93.53,7.91,1.57,1.99,1.05,3.54,2.67,4.67,4.85,1.13,2.18,1.69,4.46,1.69,6.85,0,2.22-.5,4.3-1.5,6.26-1,1.96-2.51,3.54-4.52,4.74,2.6.92,4.61,2.49,6,4.71s2.1,4.83,2.1,7.85c0,2.43-.43,4.69-1.28,6.77-.85,2.09-1.9,3.7-3.16,4.83-1.25,1.13-2.82,1.99-4.71,2.56-1.89.58-4.2.87-6.94.87h-16.41ZM371.73,202.51h9.31c2.53,0,4.34-.2,5.43-.6,1.45-.52,2.54-1.38,3.27-2.58s1.1-2.71,1.1-4.53c0-1.72-.34-3.24-1.03-4.55-.69-1.31-1.66-2.21-2.94-2.69-1.27-.48-3.46-.73-6.55-.73h-8.6v15.67ZM371.73,226.46h10.72c1.84,0,3.13-.08,3.88-.25,1.31-.28,2.41-.75,3.29-1.42.88-.66,1.6-1.62,2.17-2.88.57-1.26.85-2.72.85-4.37,0-1.93-.41-3.61-1.23-5.04-.82-1.43-1.96-2.43-3.42-3.01-1.46-.58-3.56-.87-6.3-.87h-9.95v17.83Z"/>
      <path class="cls-2" d="M404.64,207.32c0-8.61,1.92-15.35,5.75-20.22,3.84-4.87,8.79-7.31,14.86-7.31,3.97,0,7.56,1.14,10.75,3.43,3.19,2.29,5.62,5.48,7.3,9.57,1.67,4.09,2.51,8.73,2.51,13.92s-.88,9.96-2.64,14.12-4.26,7.29-7.49,9.43c-3.23,2.13-6.71,3.2-10.45,3.2-4.05,0-7.67-1.18-10.86-3.54-3.19-2.36-5.61-5.58-7.25-9.66-1.64-4.08-2.47-8.4-2.47-12.95ZM410.52,207.43c0,6.25,1.39,11.17,4.18,14.77,2.79,3.6,6.29,5.4,10.5,5.4s7.82-1.82,10.58-5.45c2.77-3.63,4.16-8.78,4.16-15.46,0-4.22-.59-7.91-1.78-11.06-1.18-3.15-2.92-5.59-5.2-7.32s-4.84-2.6-7.68-2.6c-4.03,0-7.5,1.67-10.41,5.01-2.91,3.34-4.36,8.91-4.36,16.72Z"/>
      <path class="cls-2" d="M460.67,232.58l-11.42-51.86h5.84l6.55,34c.7,3.56,1.31,7.1,1.82,10.61,1.1-5.54,1.74-8.74,1.94-9.59l8.19-35.02h6.87l6.17,26.25c1.55,6.51,2.66,12.63,3.35,18.36.55-3.28,1.26-7.04,2.14-11.29l6.75-33.32h5.73l-11.8,51.86h-5.49l-9.07-39.52c-.76-3.3-1.21-5.33-1.35-6.08-.45,2.38-.87,4.41-1.26,6.08l-9.13,39.52h-5.81Z"/>
      <path class="cls-2" d="M506.47,232.58v-6.37l22.05-33.22c1.57-2.36,3.05-4.41,4.46-6.16h-24.02v-6.12h30.83v6.12l-24.16,35.98-2.61,3.64h27.48v6.12h-34.03Z"/>
      <path class="cls-2" d="M547.61,232.58v-51.86h5.7v51.86h-5.7Z"/>
      <path class="cls-2" d="M563.46,232.58v-51.86h31.12v6.12h-25.43v15.88h23.81v6.08h-23.81v17.65h26.43v6.12h-32.12ZM593.56,232.58c-1.12.83-1.98,1.85-2.6,3.06-.62,1.21-.92,2.45-.92,3.7,0,.99.22,1.83.68,2.51.45.68,1.18,1.03,2.2,1.03.45,0,.91-.08,1.38-.23.47-.15.9-.36,1.29-.62v4.53c-1.43.83-2.76,1.24-3.99,1.24-1,0-1.87-.17-2.61-.51-.74-.34-1.37-.81-1.86-1.42-.5-.6-.87-1.29-1.12-2.07-.25-.78-.37-1.62-.37-2.51,0-1.51.35-3.03,1.06-4.55.7-1.52,1.7-2.91,2.99-4.16h3.88Z"/>
      <path class="cls-2" d="M634.17,214.4l5.7,1.73c-1.19,5.64-3.34,9.94-6.44,12.89-3.1,2.96-6.9,4.44-11.38,4.44s-8.41-1.14-11.32-3.41c-2.91-2.28-5.12-5.57-6.64-9.89-1.52-4.32-2.28-8.95-2.28-13.9,0-5.4.86-10.11,2.57-14.13,1.71-4.02,4.15-7.08,7.31-9.16,3.16-2.09,6.64-3.13,10.44-3.13,4.31,0,7.93,1.32,10.86,3.96,2.94,2.64,4.98,6.36,6.14,11.14l-5.61,1.59c-1-3.77-2.45-6.52-4.35-8.24s-4.29-2.58-7.16-2.58c-3.31,0-6.07.96-8.29,2.87s-3.78,4.48-4.68,7.69-1.35,6.54-1.35,9.96c0,4.41.53,8.26,1.6,11.55,1.07,3.29,2.73,5.75,4.98,7.38,2.25,1.63,4.69,2.44,7.31,2.44,3.19,0,5.89-1.11,8.1-3.33,2.21-2.22,3.71-5.51,4.49-9.87Z"/>
      <path class="cls-2" d="M647.85,232.58v-51.86h5.7v51.86h-5.7Z"/>
      <path class="cls-2" d="M658.86,232.58l16.53-51.86h6.14l17.62,51.86h-6.49l-5.02-15.71h-18l-4.73,15.71h-6.05ZM671.28,211.28h14.59l-4.49-14.36c-1.37-4.36-2.39-7.95-3.05-10.75-.55,3.33-1.32,6.63-2.32,9.91l-4.73,15.21Z"/>
      <path class="cls-2" d="M717.03,232.58v-51.86h5.84l22.61,40.72v-40.72h5.46v51.86h-5.84l-22.61-40.75v40.75h-5.46Z"/>
      <path class="cls-2" d="M760.34,232.58v-51.86h8.57l10.19,36.72c.94,3.42,1.62,5.98,2.05,7.68.49-1.89,1.25-4.66,2.29-8.31l10.31-36.08h7.66v51.86h-5.49v-43.41l-12.51,43.41h-5.14l-12.45-44.15v44.15h-5.49Z"/>
      <path class="cls-2" d="M810.6,232.58v-51.86h16.24c2.86,0,5.04.17,6.55.5,2.11.42,3.89,1.23,5.31,2.42,1.43,1.19,2.58,2.86,3.45,5.01.87,2.15,1.31,4.5,1.31,7.08,0,4.41-1.17,8.14-3.49,11.2s-6.54,4.58-12.62,4.58h-11.04v21.08h-5.7ZM816.3,205.38h11.13c3.68,0,6.29-.83,7.84-2.48,1.55-1.65,2.32-3.97,2.32-6.97,0-2.17-.46-4.03-1.37-5.57-.91-1.54-2.11-2.56-3.6-3.06-.96-.31-2.73-.46-5.31-.46h-11.01v18.54Z"/>
    </g>
  </g>
</svg>